<svg width="752" height="697" viewBox="0 0 752 697" fill="none" xmlns="http://www.w3.org/2000/svg">
<rect id="Rectangle 1" x="194" y="307" width="137" height="30" transform="rotate(45 194 307)" fill="#7B9095"/>
<rect id="Rectangle 2" x="195" y="306.569" width="80" height="30" transform="rotate(-45 195 306.569)" fill="#7B9095"/>
<rect id="Rectangle 3" x="251" y="250" width="58.5" height="30" fill="#7B9095"/>
<rect id="Rectangle 4" x="311" y="101" width="30" height="291" fill="#7B9095"/>
<path id="Polygon 1" d="M341 54V101H311L341 54Z" fill="#7B9095"/>
<rect id="Rectangle 5" x="270.244" y="426.244" width="45.2548" height="30" transform="rotate(-45 270.244 426.244)" fill="#7B9095"/>
<rect id="Rectangle 6" x="302" y="394" width="270" height="30" fill="#7B9095"/>
<path id="Polygon 2" d="M572 394H662L572 424L572 394Z" fill="#7B9095"/>
<rect id="Rectangle 7" x="376" y="237" width="30" height="155" fill="#7B9095"/>
<rect id="Rectangle 8" x="391.296" y="211" width="130" height="30" transform="rotate(30.655 391.296 211)" fill="#7B9095"/>
<rect id="Rectangle 9" x="473" y="277" width="30" height="65" fill="#7B9095"/>
<rect id="Rectangle 10" x="481.355" y="321" width="30" height="60" transform="rotate(45 481.355 321)" fill="#7B9095"/>
<path id="Polygon 3" d="M438.272 366L458 385L416 392L438.272 366Z" fill="#7B9095"/>
<rect id="Rectangle 11" x="376" y="425" width="30" height="159" fill="#7B9095"/>
<path id="Polygon 4" d="M376 640.25L376 584H406L376 640.25Z" fill="#7B9095"/>
<rect id="Rectangle 12" x="201" width="350" height="30" fill="#FD8D49"/>
<rect id="Rectangle 15" x="201" y="667" width="350" height="30" fill="#FD8D49"/>
<rect id="Rectangle 13" x="550.544" width="350" height="30" transform="rotate(54.8979 550.544 0)" fill="#FD8D49"/>
<rect id="Rectangle 17" x="24.5439" y="392" width="350" height="30" transform="rotate(54.8979 24.5439 392)" fill="#FD8D49"/>
<rect id="Rectangle 14" y="286.352" width="350" height="30" transform="rotate(-54.9 0 286.352)" fill="#FD8D49"/>
<rect id="Rectangle 16" x="526" y="679.352" width="350" height="30" transform="rotate(-54.9 526 679.352)" fill="#FD8D49"/>
</svg>
