<svg width="300" height="70" viewBox="0 0 300 70" fill="none" xmlns="http://www.w3.org/2000/svg">
<rect width="300" height="70" rx="10" fill="black"/>
<rect x="5" y="5" width="290" height="60" rx="5" fill="#FFB23E"/>
<path d="M44.1445 20.8936C42.2148 21.5368 40.7243 22.5882 39.6729 24.0479C38.6338 25.4951 38.1143 27.2949 38.1143 29.4473C38.1143 30.2637 38.2008 30.9069 38.374 31.377C38.4111 31.513 38.473 31.6491 38.5596 31.7852C38.609 31.8717 38.6338 31.9645 38.6338 32.0635C37.3473 32.0635 36.3639 31.8037 35.6836 31.2842C34.9414 30.7152 34.5703 29.8245 34.5703 28.6123C34.5703 27.8206 34.7311 27.0166 35.0527 26.2002C35.3743 25.3838 35.832 24.5921 36.4258 23.8252C37.0072 23.083 37.6813 22.3903 38.4482 21.7471C39.2275 21.0915 40.0687 20.5225 40.9717 20.04C41.8747 19.5452 42.8086 19.168 43.7734 18.9082C44.7507 18.6361 45.7155 18.5 46.668 18.5C47.6081 18.5 48.5667 18.6794 49.5439 19.0381L48.6719 39.0586L57.04 19.0381H62.5137L58.5244 47H53.0508L55.4814 29.9297L48.3379 47H43.124L43.8848 29.8555L37.5391 47H34.4961L44.1445 20.8936ZM67.3008 47.2227C65.4329 47.2227 63.9919 46.7526 62.9775 45.8125C61.9014 44.8105 61.3633 43.2705 61.3633 41.1924C61.3633 40.4131 61.4437 39.5472 61.6045 38.5947C61.7529 37.6423 61.9818 36.6898 62.291 35.7373C62.6374 34.6735 63.0765 33.6654 63.6084 32.7129C64.1527 31.7604 64.7835 30.9193 65.501 30.1895C67.1585 28.5072 69.1995 27.666 71.624 27.666C73.1702 27.666 74.2959 28.0371 75.001 28.7793C75.5452 29.3607 75.8174 30.2018 75.8174 31.3027C75.8174 32.3789 75.5824 33.3932 75.1123 34.3457C74.6423 35.2858 73.9928 36.1208 73.1641 36.8506C72.3353 37.568 71.3952 38.1432 70.3438 38.5762C69.2923 38.9967 68.2038 39.2441 67.0781 39.3184C67.0163 39.9616 66.9854 40.4688 66.9854 40.8398C66.9854 42.0768 67.2204 42.9303 67.6904 43.4004C68.0986 43.821 68.779 44.0312 69.7314 44.0312C71.1045 44.0312 72.36 43.6602 73.498 42.918C73.9805 42.6087 74.4443 42.2438 74.8896 41.8232C75.335 41.3903 75.8545 40.846 76.4482 40.1904H77.7471C76.5472 42.2191 75.168 43.8333 73.6094 45.0332C71.6921 46.4928 69.5892 47.2227 67.3008 47.2227ZM67.375 37.5C68.0801 37.4505 68.7666 37.2464 69.4346 36.8877C70.1025 36.529 70.6963 36.0589 71.2158 35.4775C71.7354 34.8838 72.1436 34.222 72.4404 33.4922C72.7373 32.75 72.8857 31.9954 72.8857 31.2285C72.8857 30.7214 72.8115 30.3379 72.6631 30.0781C72.527 29.806 72.2858 29.6699 71.9395 29.6699C71.4818 29.6699 71.0179 29.8926 70.5479 30.3379C70.0902 30.7832 69.6449 31.3955 69.2119 32.1748C68.8161 32.9046 68.4574 33.7334 68.1357 34.6611C67.8141 35.5889 67.5605 36.5352 67.375 37.5ZM80.7715 47.2227C79.8561 47.2227 79.0459 47.0866 78.3408 46.8145C77.6357 46.5299 77.042 46.1403 76.5596 45.6455C76.1143 45.1878 75.7803 44.6807 75.5576 44.124C75.335 43.555 75.2236 42.9674 75.2236 42.3613C75.2236 41.5326 75.4339 40.7842 75.8545 40.1162C76.2256 39.5225 76.6895 39.0957 77.2461 38.8359C78.2357 37.0794 79.0954 35.2982 79.8252 33.4922C80.555 31.6862 81.2539 29.7132 81.9219 27.5732L87.5439 26.8311C87.6924 30.0472 87.8285 32.515 87.9521 34.2344C88.0758 36.0033 88.181 37.3021 88.2676 38.1309C88.3418 39.0957 88.3789 39.9368 88.3789 40.6543C88.3789 41.2975 88.3294 41.7799 88.2305 42.1016C89.3685 41.4336 90.2777 40.7965 90.958 40.1904H92.5537C91.6507 41.2419 90.7168 42.1449 89.752 42.8994C88.7995 43.654 87.7975 44.3343 86.7461 44.9404C85.9915 45.7321 85.0452 46.3197 83.9072 46.7031C82.9176 47.0495 81.8724 47.2227 80.7715 47.2227ZM79.5654 44.2168C80.5179 44.2168 81.2786 43.957 81.8477 43.4375C82.528 42.819 82.8682 41.9036 82.8682 40.6914C82.8682 40.1842 82.8372 39.5472 82.7754 38.7803L82.6826 37.6484C82.5713 36.6712 82.46 35.5394 82.3486 34.2529L82.1445 31.6924C81.7858 32.8428 81.359 33.987 80.8643 35.125C80.3695 36.2507 79.7695 37.5 79.0645 38.873C79.6458 39.1947 79.9365 39.6338 79.9365 40.1904C79.9365 40.6852 79.7881 41.112 79.4912 41.4707C79.1696 41.8665 78.7614 42.0645 78.2666 42.0645C78.0192 42.0645 77.8089 42.0335 77.6357 41.9717C77.4749 41.8975 77.3451 41.7614 77.2461 41.5635C77.2461 42.4788 77.4255 43.153 77.7842 43.5859C78.1429 44.0065 78.7367 44.2168 79.5654 44.2168ZM95.2812 47.2227C94.3659 47.2227 93.5557 47.0866 92.8506 46.8145C92.1455 46.5299 91.5518 46.1403 91.0693 45.6455C90.624 45.1878 90.29 44.6807 90.0674 44.124C89.8447 43.555 89.7334 42.9674 89.7334 42.3613C89.7334 41.5326 89.9437 40.7842 90.3643 40.1162C90.7354 39.5225 91.1992 39.0957 91.7559 38.8359C92.7454 37.0794 93.6051 35.2982 94.335 33.4922C95.0648 31.6862 95.7637 29.7132 96.4316 27.5732L102.054 26.8311C102.202 30.0472 102.338 32.515 102.462 34.2344C102.586 36.0033 102.691 37.3021 102.777 38.1309C102.852 39.0957 102.889 39.9368 102.889 40.6543C102.889 41.2975 102.839 41.7799 102.74 42.1016C103.878 41.4336 104.787 40.7965 105.468 40.1904H107.063C106.16 41.2419 105.227 42.1449 104.262 42.8994C103.309 43.654 102.307 44.3343 101.256 44.9404C100.501 45.7321 99.555 46.3197 98.417 46.7031C97.4274 47.0495 96.3822 47.2227 95.2812 47.2227ZM94.0752 44.2168C95.0277 44.2168 95.7884 43.957 96.3574 43.4375C97.0378 42.819 97.3779 41.9036 97.3779 40.6914C97.3779 40.1842 97.347 39.5472 97.2852 38.7803L97.1924 37.6484C97.0811 36.6712 96.9697 35.5394 96.8584 34.2529L96.6543 31.6924C96.2956 32.8428 95.8688 33.987 95.374 35.125C94.8792 36.2507 94.2793 37.5 93.5742 38.873C94.1556 39.1947 94.4463 39.6338 94.4463 40.1904C94.4463 40.6852 94.2979 41.112 94.001 41.4707C93.6794 41.8665 93.2712 42.0645 92.7764 42.0645C92.529 42.0645 92.3187 42.0335 92.1455 41.9717C91.9847 41.8975 91.8548 41.7614 91.7559 41.5635C91.7559 42.4788 91.9352 43.153 92.2939 43.5859C92.6527 44.0065 93.2464 44.2168 94.0752 44.2168ZM110.032 47.2227C108.585 47.2227 107.416 46.7712 106.525 45.8682C105.486 44.8044 104.967 43.221 104.967 41.1182C104.967 40.2275 105.06 39.2874 105.245 38.2979C105.418 37.3083 105.678 36.3311 106.024 35.3662C106.816 33.1891 107.898 31.4326 109.271 30.0967C110.855 28.5752 112.679 27.8145 114.745 27.8145C115.772 27.8145 116.539 27.9938 117.046 28.3525C117.565 28.6989 117.825 29.1628 117.825 29.7441V30.0225L118.233 28H123.707L120.979 40.9141C120.868 41.2852 120.812 41.6934 120.812 42.1387C120.812 43.2272 121.332 43.7715 122.371 43.7715C123.064 43.7715 123.695 43.4189 124.264 42.7139C124.746 42.1201 125.142 41.279 125.451 40.1904H127.047C126.367 42.1201 125.544 43.6478 124.579 44.7734C123.763 45.7012 122.841 46.3691 121.814 46.7773C121.06 47.0742 120.262 47.2227 119.421 47.2227C118.345 47.2227 117.485 46.932 116.842 46.3506C116.211 45.7568 115.827 44.8848 115.691 43.7344C114.974 44.7487 114.219 45.5404 113.428 46.1094C112.413 46.8516 111.282 47.2227 110.032 47.2227ZM112.5 43.5488C112.785 43.5488 113.081 43.4746 113.391 43.3262C113.712 43.1777 114.021 42.9674 114.318 42.6953C114.986 42.0521 115.432 41.2171 115.654 40.1904L117.473 31.6182C117.473 31.4945 117.442 31.3522 117.38 31.1914C117.33 31.0182 117.256 30.8574 117.157 30.709C116.86 30.3503 116.446 30.1709 115.914 30.1709C115.407 30.1709 114.912 30.3379 114.43 30.6719C113.96 31.0059 113.514 31.4697 113.094 32.0635C112.352 33.1396 111.739 34.5436 111.257 36.2754C111.034 37.0423 110.867 37.8031 110.756 38.5576C110.645 39.2998 110.589 39.974 110.589 40.5801C110.589 41.8418 110.824 42.6953 111.294 43.1406C111.455 43.3138 111.634 43.4251 111.832 43.4746C112.03 43.5241 112.253 43.5488 112.5 43.5488ZM132.187 56.5C131.593 56.5 131.036 56.4196 130.517 56.2588C130.009 56.1104 129.57 55.8815 129.199 55.5723C128.803 55.263 128.494 54.8734 128.271 54.4033C128.049 53.9456 127.938 53.4137 127.938 52.8076C127.938 51.3727 128.612 50.1419 129.96 49.1152C130.974 48.3607 132.366 47.7051 134.135 47.1484L134.599 45.1445C133.3 46.5299 131.778 47.2227 130.034 47.2227C128.587 47.2227 127.418 46.7712 126.527 45.8682C125.488 44.8044 124.969 43.221 124.969 41.1182C124.969 40.2275 125.062 39.2874 125.247 38.2979C125.42 37.3083 125.68 36.3311 126.026 35.3662C126.818 33.1891 127.9 31.4326 129.273 30.0967C130.857 28.5752 132.681 27.8145 134.747 27.8145C135.774 27.8145 136.541 27.9938 137.048 28.3525C137.567 28.6989 137.827 29.1628 137.827 29.7441V29.9668L138.235 28H143.709L139.942 45.627C141.142 45.2311 142.101 44.6374 142.818 43.8457C143.598 42.9922 144.235 41.7738 144.729 40.1904H146.325C145.645 42.4417 144.631 44.1797 143.282 45.4043C142.293 46.2949 141.068 46.9258 139.608 47.2969L139.033 50.043C138.551 52.4674 137.586 54.224 136.139 55.3125C135.087 56.1042 133.77 56.5 132.187 56.5ZM132.502 43.5488C133.046 43.5488 133.621 43.2952 134.228 42.7881C134.883 42.2191 135.322 41.4831 135.545 40.5801L137.475 31.5811C137.475 31.4574 137.444 31.3151 137.382 31.1543C137.332 30.9935 137.258 30.8451 137.159 30.709C136.862 30.3503 136.448 30.1709 135.916 30.1709C135.409 30.1709 134.914 30.3379 134.432 30.6719C133.962 31.0059 133.516 31.4697 133.096 32.0635C132.354 33.1396 131.741 34.5436 131.259 36.2754C131.036 37.0423 130.869 37.8031 130.758 38.5576C130.646 39.2998 130.591 39.974 130.591 40.5801C130.591 41.8418 130.826 42.6953 131.296 43.1406C131.457 43.3138 131.636 43.4251 131.834 43.4746C132.032 43.5241 132.255 43.5488 132.502 43.5488ZM131.314 53.5312C131.71 53.5312 132.118 53.2529 132.539 52.6963C132.96 52.152 133.287 51.3047 133.522 50.1543L133.745 49.0596C132.595 49.4925 131.735 49.9316 131.166 50.377C130.411 50.946 130.034 51.583 130.034 52.2881C130.034 52.6221 130.139 52.9004 130.35 53.123C130.585 53.3952 130.906 53.5312 131.314 53.5312ZM150.166 47.2227C148.298 47.2227 146.857 46.7526 145.843 45.8125C144.767 44.8105 144.229 43.2705 144.229 41.1924C144.229 40.4131 144.309 39.5472 144.47 38.5947C144.618 37.6423 144.847 36.6898 145.156 35.7373C145.503 34.6735 145.942 33.6654 146.474 32.7129C147.018 31.7604 147.649 30.9193 148.366 30.1895C150.024 28.5072 152.065 27.666 154.489 27.666C156.035 27.666 157.161 28.0371 157.866 28.7793C158.41 29.3607 158.683 30.2018 158.683 31.3027C158.683 32.3789 158.448 33.3932 157.978 34.3457C157.507 35.2858 156.858 36.1208 156.029 36.8506C155.201 37.568 154.26 38.1432 153.209 38.5762C152.158 38.9967 151.069 39.2441 149.943 39.3184C149.882 39.9616 149.851 40.4688 149.851 40.8398C149.851 42.0768 150.086 42.9303 150.556 43.4004C150.964 43.821 151.644 44.0312 152.597 44.0312C153.97 44.0312 155.225 43.6602 156.363 42.918C156.846 42.6087 157.31 42.2438 157.755 41.8232C158.2 41.3903 158.72 40.846 159.313 40.1904H160.612C159.412 42.2191 158.033 43.8333 156.475 45.0332C154.557 46.4928 152.454 47.2227 150.166 47.2227ZM150.24 37.5C150.945 37.4505 151.632 37.2464 152.3 36.8877C152.968 36.529 153.562 36.0589 154.081 35.4775C154.601 34.8838 155.009 34.222 155.306 33.4922C155.603 32.75 155.751 31.9954 155.751 31.2285C155.751 30.7214 155.677 30.3379 155.528 30.0781C155.392 29.806 155.151 29.6699 154.805 29.6699C154.347 29.6699 153.883 29.8926 153.413 30.3379C152.955 30.7832 152.51 31.3955 152.077 32.1748C151.681 32.9046 151.323 33.7334 151.001 34.6611C150.679 35.5889 150.426 36.5352 150.24 37.5ZM179.742 20.8936C177.812 21.5368 176.322 22.5882 175.271 24.0479C174.231 25.4951 173.712 27.2949 173.712 29.4473C173.712 30.2637 173.799 30.9069 173.972 31.377C174.009 31.513 174.071 31.6491 174.157 31.7852C174.207 31.8717 174.231 31.9645 174.231 32.0635C172.945 32.0635 171.962 31.8037 171.281 31.2842C170.539 30.7152 170.168 29.8245 170.168 28.6123C170.168 27.8206 170.329 27.0166 170.65 26.2002C170.972 25.3838 171.43 24.5921 172.023 23.8252C172.605 23.083 173.279 22.3903 174.046 21.7471C174.825 21.0915 175.666 20.5225 176.569 20.04C177.472 19.5452 178.406 19.168 179.371 18.9082C180.348 18.6361 181.313 18.5 182.266 18.5C183.206 18.5 184.164 18.6794 185.142 19.0381L184.27 39.0586L192.638 19.0381H198.111L194.122 47H188.648L191.079 29.9297L183.936 47H178.722L179.482 29.8555L173.137 47H170.094L179.742 20.8936ZM202.898 47.2227C201.031 47.2227 199.59 46.7526 198.575 45.8125C197.499 44.8105 196.961 43.2705 196.961 41.1924C196.961 40.4131 197.041 39.5472 197.202 38.5947C197.351 37.6423 197.579 36.6898 197.889 35.7373C198.235 34.6735 198.674 33.6654 199.206 32.7129C199.75 31.7604 200.381 30.9193 201.099 30.1895C202.756 28.5072 204.797 27.666 207.222 27.666C208.768 27.666 209.894 28.0371 210.599 28.7793C211.143 29.3607 211.415 30.2018 211.415 31.3027C211.415 32.3789 211.18 33.3932 210.71 34.3457C210.24 35.2858 209.59 36.1208 208.762 36.8506C207.933 37.568 206.993 38.1432 205.941 38.5762C204.89 38.9967 203.801 39.2441 202.676 39.3184C202.614 39.9616 202.583 40.4688 202.583 40.8398C202.583 42.0768 202.818 42.9303 203.288 43.4004C203.696 43.821 204.377 44.0312 205.329 44.0312C206.702 44.0312 207.958 43.6602 209.096 42.918C209.578 42.6087 210.042 42.2438 210.487 41.8232C210.933 41.3903 211.452 40.846 212.046 40.1904H213.345C212.145 42.2191 210.766 43.8333 209.207 45.0332C207.29 46.4928 205.187 47.2227 202.898 47.2227ZM202.973 37.5C203.678 37.4505 204.364 37.2464 205.032 36.8877C205.7 36.529 206.294 36.0589 206.813 35.4775C207.333 34.8838 207.741 34.222 208.038 33.4922C208.335 32.75 208.483 31.9954 208.483 31.2285C208.483 30.7214 208.409 30.3379 208.261 30.0781C208.125 29.806 207.883 29.6699 207.537 29.6699C207.079 29.6699 206.616 29.8926 206.146 30.3379C205.688 30.7832 205.243 31.3955 204.81 32.1748C204.414 32.9046 204.055 33.7334 203.733 34.6611C203.412 35.5889 203.158 36.5352 202.973 37.5Z" fill="black"/>
<path d="M249 19.3333C258.19 19.3333 265.667 26.81 265.667 36C265.667 45.19 258.19 52.6667 249 52.6667C239.81 52.6667 232.333 45.19 232.333 36C232.333 26.81 239.81 19.3333 249 19.3333ZM249 16C237.955 16 229 24.955 229 36C229 47.045 237.955 56 249 56C260.045 56 269 47.045 269 36C269 24.955 260.045 16 249 16ZM258.178 39.235C255.658 41.2267 252.888 42.4533 249.002 42.4533C245.112 42.4533 242.342 41.2267 239.822 39.235L239 40.0567C240.878 42.9233 244.333 46 249.002 46C253.668 46 257.122 42.9233 259 40.0567L258.178 39.235ZM243.167 29.3333C241.787 29.3333 240.667 30.4517 240.667 31.8333C240.667 33.215 241.787 34.3333 243.167 34.3333C244.547 34.3333 245.667 33.215 245.667 31.8333C245.667 30.4517 244.547 29.3333 243.167 29.3333ZM254.833 29.3333C253.453 29.3333 252.333 30.4517 252.333 31.8333C252.333 33.215 253.453 34.3333 254.833 34.3333C256.213 34.3333 257.333 33.215 257.333 31.8333C257.333 30.4517 256.213 29.3333 254.833 29.3333V29.3333Z" fill="black"/>
</svg>
