<svg width="200" height="60" viewBox="0 0 200 60" fill="none" xmlns="http://www.w3.org/2000/svg">
<rect width="200" height="60" rx="10" fill="#D9D9D9"/>
<rect x="5" y="5" width="190" height="50" rx="8" fill="#FEBF45"/>
<path d="M27.0576 20.8857C25.9404 21.2581 25.0775 21.8669 24.4688 22.7119C23.8672 23.5498 23.5664 24.5918 23.5664 25.8379C23.5664 26.3105 23.6165 26.6829 23.7168 26.9551C23.7383 27.0339 23.7741 27.1126 23.8242 27.1914C23.8529 27.2415 23.8672 27.2952 23.8672 27.3525C23.1224 27.3525 22.5531 27.2021 22.1592 26.9014C21.7295 26.5719 21.5146 26.0563 21.5146 25.3545C21.5146 24.8962 21.6077 24.4307 21.7939 23.958C21.9801 23.4854 22.2451 23.027 22.5889 22.583C22.9255 22.1533 23.3158 21.7523 23.7598 21.3799C24.2109 21.0003 24.6979 20.6709 25.2207 20.3916C25.7435 20.1051 26.2842 19.8867 26.8428 19.7363C27.4085 19.5788 27.9671 19.5 28.5186 19.5C29.0628 19.5 29.6178 19.6038 30.1836 19.8115L29.6787 31.4023L34.5234 19.8115H37.6924L35.3828 36H32.2139L33.6211 26.1172L29.4854 36H26.4668L26.9072 26.0742L23.2334 36H21.4717L27.0576 20.8857ZM40.5283 36.0859C39.4398 36.0859 38.5983 35.821 38.0039 35.291C37.3379 34.7038 37.0049 33.8122 37.0049 32.6162C37.0049 32.165 37.0514 31.6673 37.1445 31.123C37.2376 30.5716 37.3809 30.0166 37.5742 29.458C38.0182 28.126 38.652 27.0625 39.4756 26.2676C40.471 25.2936 41.6562 24.8066 43.0312 24.8066C44.9147 24.8066 45.8564 25.9775 45.8564 28.3193V28.3408C45.8994 28.3551 45.9352 28.3623 45.9639 28.3623H46.0928C46.5798 28.3623 47.1562 28.2262 47.8223 27.9541C48.4095 27.7106 48.9645 27.4062 49.4873 27.041L49.6807 27.6426C49.251 28.0938 48.696 28.4769 48.0156 28.792C47.3424 29.1071 46.5977 29.3327 45.7812 29.4688C45.6953 30.4642 45.502 31.3737 45.2012 32.1973C44.9004 33.0137 44.5137 33.7155 44.041 34.3027C43.5755 34.8757 43.042 35.3161 42.4404 35.624C41.8389 35.932 41.2015 36.0859 40.5283 36.0859ZM41.4092 34.1094C41.667 34.1094 41.9284 33.9948 42.1934 33.7656C42.4655 33.5293 42.7197 33.2035 42.9561 32.7881C43.1924 32.3727 43.3965 31.8857 43.5684 31.3271C43.7402 30.7686 43.8691 30.1706 43.9551 29.5332C43.7402 29.4759 43.5863 29.3685 43.4932 29.2109C43.4072 29.0534 43.3643 28.8529 43.3643 28.6094C43.3643 28.3086 43.4251 28.0579 43.5469 27.8574C43.6686 27.6569 43.8369 27.5101 44.0518 27.417C44.0231 26.9515 43.9479 26.6185 43.8262 26.418C43.7617 26.3177 43.6794 26.2461 43.5791 26.2031C43.486 26.1602 43.3643 26.1387 43.2139 26.1387C42.7197 26.1387 42.2363 26.5111 41.7637 27.2559C41.3268 27.929 40.9688 28.7598 40.6895 29.748C40.4173 30.7148 40.2812 31.5742 40.2812 32.3262C40.2812 32.6914 40.2992 32.9886 40.335 33.2178C40.3779 33.4469 40.446 33.626 40.5391 33.7549C40.625 33.8838 40.736 33.9769 40.8721 34.0342C41.0081 34.0843 41.1872 34.1094 41.4092 34.1094ZM48.4775 25H51.6465L51.3672 26.3643C51.8685 25.9202 52.2767 25.6051 52.5918 25.4189C53.0788 25.1396 53.555 25 54.0205 25C54.4932 25 54.8727 25.1683 55.1592 25.5049C55.2881 25.6553 55.3848 25.8307 55.4492 26.0312C55.5137 26.2246 55.5459 26.4323 55.5459 26.6543C55.5459 26.8548 55.5137 27.0482 55.4492 27.2344C55.3848 27.4206 55.2881 27.5889 55.1592 27.7393C55.016 27.8968 54.8405 28.0221 54.6328 28.1152C54.4323 28.2083 54.2067 28.2549 53.9561 28.2549C53.7627 28.2549 53.6087 28.2227 53.4941 28.1582C53.3796 28.0938 53.29 28.0007 53.2256 27.8789C53.1683 27.7572 53.1289 27.639 53.1074 27.5244C53.043 27.2165 52.9785 27.0124 52.9141 26.9121C52.8639 26.8405 52.7852 26.8047 52.6777 26.8047C52.3698 26.8047 52.1084 26.8691 51.8936 26.998C51.6787 27.127 51.4066 27.3418 51.0771 27.6426L49.3154 36H46.1465L48.4775 25ZM58.4033 36.1289C57.3219 36.1289 56.4876 35.8568 55.9004 35.3125C55.2773 34.7324 54.9658 33.8408 54.9658 32.6377C54.9658 32.1865 55.0124 31.6852 55.1055 31.1338C55.1914 30.5824 55.3239 30.0309 55.5029 29.4795C55.7035 28.8636 55.9577 28.2799 56.2656 27.7285C56.5807 27.1771 56.946 26.6901 57.3613 26.2676C58.321 25.2936 59.5026 24.8066 60.9062 24.8066C61.8014 24.8066 62.4531 25.0215 62.8613 25.4512C63.1764 25.7878 63.334 26.2747 63.334 26.9121C63.334 27.5352 63.1979 28.1224 62.9258 28.6738C62.6536 29.2181 62.2777 29.7015 61.7979 30.124C61.318 30.5394 60.7738 30.8724 60.165 31.123C59.5563 31.3665 58.9261 31.5098 58.2744 31.5527C58.2386 31.9251 58.2207 32.2188 58.2207 32.4336C58.2207 33.1497 58.3568 33.6439 58.6289 33.916C58.8652 34.1595 59.2591 34.2812 59.8105 34.2812C60.6055 34.2812 61.3324 34.0664 61.9912 33.6367C62.2705 33.4577 62.5391 33.2464 62.7969 33.0029C63.0547 32.7523 63.3555 32.4372 63.6992 32.0576H64.4512C63.7565 33.2321 62.958 34.1667 62.0557 34.8613C60.9456 35.7064 59.7282 36.1289 58.4033 36.1289ZM58.4463 30.5C58.8545 30.4714 59.252 30.3532 59.6387 30.1455C60.0254 29.9378 60.3691 29.6657 60.6699 29.3291C60.9707 28.9854 61.207 28.6022 61.3789 28.1797C61.5508 27.75 61.6367 27.3132 61.6367 26.8691C61.6367 26.5755 61.5938 26.3535 61.5078 26.2031C61.429 26.0456 61.2894 25.9668 61.0889 25.9668C60.8239 25.9668 60.5553 26.0957 60.2832 26.3535C60.0182 26.6113 59.7604 26.9658 59.5098 27.417C59.2806 27.8395 59.0729 28.3193 58.8867 28.8564C58.7005 29.3936 58.5537 29.9414 58.4463 30.5ZM73.5283 22.0029L76.7832 21.5732L75.2256 28.9209C75.9202 28.8708 76.5827 28.5485 77.2129 27.9541C77.7858 27.417 78.2406 26.7367 78.5771 25.9131C78.9066 25.1253 79.0713 24.3232 79.0713 23.5068C79.0713 22.6475 78.86 21.9421 78.4375 21.3906C78.2083 21.1113 77.9183 20.8965 77.5674 20.7461C77.2165 20.5885 76.8083 20.5098 76.3428 20.5098C75.4548 20.5098 74.6562 20.6315 73.9473 20.875C73.2454 21.1185 72.6475 21.4694 72.1533 21.9277C71.6592 22.3861 71.2832 22.9482 71.0254 23.6143C70.7747 24.2803 70.6494 25.0286 70.6494 25.8594C70.6494 26.3177 70.6995 26.6829 70.7998 26.9551C70.8285 27.0482 70.8643 27.1305 70.9072 27.2021C70.9359 27.2523 70.9502 27.3024 70.9502 27.3525C70.1553 27.3525 69.5752 27.195 69.21 26.8799C68.8018 26.5361 68.5977 25.9811 68.5977 25.2148C68.5977 24.735 68.7015 24.2624 68.9092 23.7969C69.1169 23.3242 69.4105 22.8695 69.79 22.4326C70.1481 22.0173 70.5742 21.6305 71.0684 21.2725C71.5697 20.9072 72.1104 20.5921 72.6904 20.3271C73.9079 19.7757 75.1182 19.5 76.3213 19.5C78.0186 19.5 79.3363 19.9404 80.2744 20.8213C80.6898 21.2152 80.9977 21.6699 81.1982 22.1855C81.4059 22.7012 81.5098 23.249 81.5098 23.8291C81.5098 24.5381 81.363 25.2435 81.0693 25.9453C80.7829 26.6471 80.3675 27.2738 79.8232 27.8252C79.2503 28.4124 78.5664 28.8779 77.7715 29.2217C76.9837 29.5583 76.1136 29.7266 75.1611 29.7266H75.043L73.7002 36H70.542L73.5283 22.0029ZM82.5732 25H85.7422L85.4629 26.3643C85.9642 25.9202 86.3724 25.6051 86.6875 25.4189C87.1745 25.1396 87.6507 25 88.1162 25C88.5889 25 88.9684 25.1683 89.2549 25.5049C89.3838 25.6553 89.4805 25.8307 89.5449 26.0312C89.6094 26.2246 89.6416 26.4323 89.6416 26.6543C89.6416 26.8548 89.6094 27.0482 89.5449 27.2344C89.4805 27.4206 89.3838 27.5889 89.2549 27.7393C89.1117 27.8968 88.9362 28.0221 88.7285 28.1152C88.528 28.2083 88.3024 28.2549 88.0518 28.2549C87.8584 28.2549 87.7044 28.2227 87.5898 28.1582C87.4753 28.0938 87.3857 28.0007 87.3213 27.8789C87.264 27.7572 87.2246 27.639 87.2031 27.5244C87.1387 27.2165 87.0742 27.0124 87.0098 26.9121C86.9596 26.8405 86.8809 26.8047 86.7734 26.8047C86.4655 26.8047 86.2041 26.8691 85.9893 26.998C85.7744 27.127 85.5023 27.3418 85.1729 27.6426L83.4111 36H80.2422L82.5732 25ZM92.5635 36.0859C91.4749 36.0859 90.6335 35.821 90.0391 35.291C89.373 34.7038 89.04 33.8122 89.04 32.6162C89.04 32.165 89.0866 31.6673 89.1797 31.123C89.2728 30.5716 89.416 30.0166 89.6094 29.458C90.0534 28.126 90.6872 27.0625 91.5107 26.2676C92.5062 25.2936 93.6914 24.8066 95.0664 24.8066C96.9499 24.8066 97.8916 25.9775 97.8916 28.3193V28.3408C97.9346 28.3551 97.9704 28.3623 97.999 28.3623H98.1279C98.6149 28.3623 99.1914 28.2262 99.8574 27.9541C100.445 27.7106 101 27.4062 101.522 27.041L101.716 27.6426C101.286 28.0938 100.731 28.4769 100.051 28.792C99.3776 29.1071 98.6328 29.3327 97.8164 29.4688C97.7305 30.4642 97.5371 31.3737 97.2363 32.1973C96.9355 33.0137 96.5488 33.7155 96.0762 34.3027C95.6107 34.8757 95.0771 35.3161 94.4756 35.624C93.874 35.932 93.2367 36.0859 92.5635 36.0859ZM93.4443 34.1094C93.7021 34.1094 93.9635 33.9948 94.2285 33.7656C94.5007 33.5293 94.7549 33.2035 94.9912 32.7881C95.2275 32.3727 95.4316 31.8857 95.6035 31.3271C95.7754 30.7686 95.9043 30.1706 95.9902 29.5332C95.7754 29.4759 95.6214 29.3685 95.5283 29.2109C95.4424 29.0534 95.3994 28.8529 95.3994 28.6094C95.3994 28.3086 95.4603 28.0579 95.582 27.8574C95.7038 27.6569 95.8721 27.5101 96.0869 27.417C96.0583 26.9515 95.9831 26.6185 95.8613 26.418C95.7969 26.3177 95.7145 26.2461 95.6143 26.2031C95.5212 26.1602 95.3994 26.1387 95.249 26.1387C94.7549 26.1387 94.2715 26.5111 93.7988 27.2559C93.362 27.929 93.0039 28.7598 92.7246 29.748C92.4525 30.7148 92.3164 31.5742 92.3164 32.3262C92.3164 32.6914 92.3343 32.9886 92.3701 33.2178C92.4131 33.4469 92.4811 33.626 92.5742 33.7549C92.6602 33.8838 92.7712 33.9769 92.9072 34.0342C93.0433 34.0843 93.2223 34.1094 93.4443 34.1094ZM102.521 23.7861C102.285 23.7861 102.06 23.7432 101.845 23.6572C101.63 23.5641 101.444 23.4388 101.286 23.2812C101.129 23.1309 101.003 22.9482 100.91 22.7334C100.824 22.5186 100.781 22.293 100.781 22.0566C100.781 21.8203 100.824 21.5947 100.91 21.3799C101.003 21.1579 101.129 20.9681 101.286 20.8105C101.444 20.653 101.63 20.5277 101.845 20.4346C102.06 20.3415 102.285 20.2949 102.521 20.2949C102.758 20.2949 102.983 20.3415 103.198 20.4346C103.413 20.5277 103.599 20.653 103.757 20.8105C103.914 20.9681 104.04 21.1579 104.133 21.3799C104.226 21.5947 104.272 21.8203 104.272 22.0566C104.272 22.293 104.226 22.5186 104.133 22.7334C104.04 22.9411 103.914 23.1237 103.757 23.2812C103.599 23.4388 103.413 23.5641 103.198 23.6572C102.983 23.7432 102.758 23.7861 102.521 23.7861ZM97.043 41.5C96.3483 41.5 95.7718 41.321 95.3135 40.9629C95.0771 40.7839 94.8945 40.5583 94.7656 40.2861C94.6367 40.0212 94.5723 39.7132 94.5723 39.3623C94.5723 38.5387 94.9661 37.8298 95.7539 37.2354C96.334 36.7913 97.1432 36.4082 98.1816 36.0859L100.534 25H103.703L101.522 35.2051C102.217 34.9759 102.772 34.6322 103.188 34.1738C103.632 33.6868 104.004 32.9814 104.305 32.0576H105.229C104.835 33.361 104.247 34.3672 103.467 35.0762C102.887 35.599 102.174 35.9642 101.329 36.1719L100.996 37.7617C100.717 39.1582 100.162 40.1751 99.3311 40.8125C98.7223 41.2708 97.9596 41.5 97.043 41.5ZM96.5381 39.7812C96.7673 39.7812 97 39.6201 97.2363 39.2979C97.4798 38.9827 97.6696 38.4922 97.8057 37.8262L97.9453 37.1924C97.265 37.4502 96.7637 37.7044 96.4414 37.9551C96.0046 38.2845 95.7861 38.6533 95.7861 39.0615C95.7861 39.2549 95.847 39.416 95.9688 39.5449C96.112 39.7025 96.3018 39.7812 96.5381 39.7812ZM107.452 36.1289C106.371 36.1289 105.536 35.8568 104.949 35.3125C104.326 34.7324 104.015 33.8408 104.015 32.6377C104.015 32.1865 104.061 31.6852 104.154 31.1338C104.24 30.5824 104.373 30.0309 104.552 29.4795C104.752 28.8636 105.007 28.2799 105.314 27.7285C105.63 27.1771 105.995 26.6901 106.41 26.2676C107.37 25.2936 108.551 24.8066 109.955 24.8066C110.85 24.8066 111.502 25.0215 111.91 25.4512C112.225 25.7878 112.383 26.2747 112.383 26.9121C112.383 27.5352 112.247 28.1224 111.975 28.6738C111.702 29.2181 111.326 29.7015 110.847 30.124C110.367 30.5394 109.823 30.8724 109.214 31.123C108.605 31.3665 107.975 31.5098 107.323 31.5527C107.287 31.9251 107.27 32.2188 107.27 32.4336C107.27 33.1497 107.406 33.6439 107.678 33.916C107.914 34.1595 108.308 34.2812 108.859 34.2812C109.654 34.2812 110.381 34.0664 111.04 33.6367C111.319 33.4577 111.588 33.2464 111.846 33.0029C112.104 32.7523 112.404 32.4372 112.748 32.0576H113.5C112.805 33.2321 112.007 34.1667 111.104 34.8613C109.994 35.7064 108.777 36.1289 107.452 36.1289ZM107.495 30.5C107.903 30.4714 108.301 30.3532 108.688 30.1455C109.074 29.9378 109.418 29.6657 109.719 29.3291C110.02 28.9854 110.256 28.6022 110.428 28.1797C110.6 27.75 110.686 27.3132 110.686 26.8691C110.686 26.5755 110.643 26.3535 110.557 26.2031C110.478 26.0456 110.338 25.9668 110.138 25.9668C109.873 25.9668 109.604 26.0957 109.332 26.3535C109.067 26.6113 108.809 26.9658 108.559 27.417C108.329 27.8395 108.122 28.3193 107.936 28.8564C107.749 29.3936 107.603 29.9414 107.495 30.5ZM115.896 36.1289C114.814 36.1289 113.98 35.8568 113.393 35.3125C112.77 34.7324 112.458 33.8408 112.458 32.6377C112.458 32.1865 112.505 31.6852 112.598 31.1338C112.684 30.5752 112.82 30.0202 113.006 29.4688C113.443 28.1296 114.062 27.0625 114.864 26.2676C115.853 25.2936 117.023 24.8066 118.377 24.8066C119.258 24.8066 119.91 25.0179 120.332 25.4404C120.661 25.777 120.826 26.2389 120.826 26.8262C120.826 27.3418 120.712 27.7428 120.482 28.0293C120.268 28.2943 119.992 28.4268 119.655 28.4268C119.412 28.4268 119.154 28.3408 118.882 28.1689C119.061 27.7035 119.15 27.2702 119.15 26.8691C119.15 26.5898 119.097 26.3714 118.989 26.2139C118.889 26.0492 118.739 25.9668 118.538 25.9668C118.108 25.9668 117.661 26.3464 117.195 27.1055C116.773 27.7786 116.422 28.6344 116.143 29.6729C115.856 30.6898 115.713 31.61 115.713 32.4336C115.713 33.1497 115.849 33.6439 116.121 33.916C116.357 34.1595 116.751 34.2812 117.303 34.2812C118.098 34.2812 118.825 34.0664 119.483 33.6367C119.763 33.4577 120.031 33.2464 120.289 33.0029C120.547 32.7523 120.848 32.4372 121.191 32.0576H121.943C121.249 33.2321 120.45 34.1667 119.548 34.8613C118.438 35.7064 117.22 36.1289 115.896 36.1289ZM123.372 36.1289C122.67 36.1289 122.115 35.9212 121.707 35.5059C121.249 35.0475 121.02 34.3779 121.02 33.4971C121.02 33.0817 121.077 32.6019 121.191 32.0576L122.513 25.8809H121.782L121.965 25H122.685L123.351 21.96L126.605 21.5195L125.854 25H127.175L127.003 25.8809H125.682L124.274 32.4766C124.217 32.6628 124.188 32.8991 124.188 33.1855C124.188 33.4863 124.257 33.6976 124.393 33.8193C124.536 33.9411 124.765 34.002 125.08 34.002C125.295 34.002 125.503 33.9554 125.703 33.8623C125.911 33.762 126.101 33.626 126.272 33.4541C126.623 33.1032 126.888 32.6377 127.067 32.0576H127.991C127.597 33.1676 127.103 34.0521 126.509 34.7109C126.007 35.248 125.442 35.6348 124.812 35.8711C124.353 36.043 123.873 36.1289 123.372 36.1289ZM129.581 36.1289C129.051 36.1289 128.582 36.0501 128.174 35.8926C127.766 35.7279 127.422 35.5023 127.143 35.2158C126.885 34.9508 126.691 34.6572 126.562 34.335C126.434 34.0055 126.369 33.6654 126.369 33.3145C126.369 32.8346 126.491 32.4014 126.734 32.0146C126.949 31.6709 127.218 31.4238 127.54 31.2734C128.113 30.2565 128.611 29.2253 129.033 28.1797C129.456 27.1341 129.86 25.9919 130.247 24.7529L133.502 24.3232C133.588 26.1852 133.667 27.6139 133.738 28.6094C133.81 29.6335 133.871 30.3854 133.921 30.8652C133.964 31.4238 133.985 31.9108 133.985 32.3262C133.985 32.6986 133.957 32.9779 133.899 33.1641C134.558 32.7773 135.085 32.4085 135.479 32.0576H136.402C135.88 32.6663 135.339 33.1891 134.78 33.626C134.229 34.0628 133.649 34.4567 133.04 34.8076C132.603 35.266 132.055 35.6061 131.396 35.8281C130.824 36.0286 130.218 36.1289 129.581 36.1289ZM128.883 34.3887C129.434 34.3887 129.875 34.2383 130.204 33.9375C130.598 33.5794 130.795 33.0495 130.795 32.3477C130.795 32.054 130.777 31.6852 130.741 31.2412L130.688 30.5859C130.623 30.0202 130.559 29.3649 130.494 28.6201L130.376 27.1377C130.168 27.8037 129.921 28.4661 129.635 29.125C129.348 29.7767 129.001 30.5 128.593 31.2949C128.929 31.4811 129.098 31.7354 129.098 32.0576C129.098 32.3441 129.012 32.5911 128.84 32.7988C128.654 33.028 128.417 33.1426 128.131 33.1426C127.988 33.1426 127.866 33.1247 127.766 33.0889C127.673 33.0459 127.597 32.9671 127.54 32.8525C127.54 33.3825 127.644 33.7728 127.852 34.0234C128.059 34.2669 128.403 34.3887 128.883 34.3887Z" fill="white"/>
<path d="M183.061 31.0607C183.646 30.4749 183.646 29.5251 183.061 28.9393L173.515 19.3934C172.929 18.8076 171.979 18.8076 171.393 19.3934C170.808 19.9792 170.808 20.9289 171.393 21.5147L179.879 30L171.393 38.4853C170.808 39.0711 170.808 40.0208 171.393 40.6066C171.979 41.1924 172.929 41.1924 173.515 40.6066L183.061 31.0607ZM157 31.5H182V28.5H157V31.5Z" fill="white"/>
</svg>
